<?xml version="1.0" encoding="UTF-8" standalone="no"?>
<!DOCTYPE svg PUBLIC "-//W3C//DTD SVG 1.1//EN" "http://www.w3.org/Graphics/SVG/1.1/DTD/svg11.dtd">
<svg width="100%" height="100%" viewBox="0 0 249 36" version="1.1" xmlns="http://www.w3.org/2000/svg" xmlns:xlink="http://www.w3.org/1999/xlink" xml:space="preserve" xmlns:serif="http://www.serif.com/" style="fill-rule:evenodd;clip-rule:evenodd;stroke-linejoin:round;stroke-miterlimit:2;">
    <g transform="matrix(1,0,0,1,-0.000125,-0.00464844)">
        <g transform="matrix(1,0,0,1,-848.163,-1132.54)">
            <g transform="matrix(1,0,0,1,846.21,1167.53)">
                <path d="M20.215,-9.497L24.536,-8.936C24.064,-5.957 22.856,-3.625 20.911,-1.941C18.966,-0.256 16.577,0.586 13.745,0.586C10.197,0.586 7.345,-0.574 5.188,-2.893C3.031,-5.212 1.953,-8.537 1.953,-12.866C1.953,-15.666 2.417,-18.115 3.345,-20.215C4.272,-22.314 5.684,-23.889 7.581,-24.939C9.477,-25.989 11.54,-26.514 13.77,-26.514C16.585,-26.514 18.888,-25.802 20.679,-24.377C22.469,-22.953 23.617,-20.931 24.121,-18.311L19.849,-17.651C19.442,-19.393 18.722,-20.703 17.688,-21.582C16.654,-22.461 15.405,-22.9 13.94,-22.9C11.727,-22.9 9.928,-22.107 8.545,-20.52C7.161,-18.933 6.47,-16.423 6.47,-12.988C6.47,-9.505 7.137,-6.974 8.472,-5.396C9.806,-3.817 11.548,-3.027 13.696,-3.027C15.422,-3.027 16.862,-3.556 18.018,-4.614C19.173,-5.672 19.906,-7.3 20.215,-9.497Z" style="fill-rule:nonzero;"/>
                <path d="M28.247,0L28.247,-25.928L32.202,-25.928L32.202,-21.997C33.211,-23.836 34.143,-25.049 34.998,-25.635C35.852,-26.221 36.792,-26.514 37.817,-26.514C39.299,-26.514 40.804,-26.042 42.334,-25.098L40.82,-21.021C39.746,-21.655 38.672,-21.973 37.598,-21.973C36.637,-21.973 35.775,-21.684 35.01,-21.106C34.245,-20.528 33.7,-19.727 33.374,-18.701C32.886,-17.139 32.642,-15.43 32.642,-13.574L32.642,0L28.247,0Z" style="fill-rule:nonzero;"/>
                <path d="M61.865,-3.198C60.238,-1.815 58.671,-0.838 57.166,-0.269C55.66,0.301 54.045,0.586 52.319,0.586C49.471,0.586 47.282,-0.11 45.752,-1.501C44.222,-2.893 43.457,-4.671 43.457,-6.836C43.457,-8.105 43.746,-9.265 44.324,-10.315C44.902,-11.365 45.658,-12.207 46.594,-12.842C47.53,-13.477 48.584,-13.957 49.756,-14.282C50.618,-14.51 51.921,-14.73 53.662,-14.941C57.21,-15.365 59.823,-15.869 61.499,-16.455C61.515,-17.057 61.523,-17.44 61.523,-17.603C61.523,-19.393 61.108,-20.654 60.278,-21.387C59.155,-22.38 57.487,-22.876 55.273,-22.876C53.206,-22.876 51.681,-22.514 50.696,-21.79C49.711,-21.065 48.983,-19.784 48.511,-17.944L44.214,-18.53C44.604,-20.369 45.247,-21.855 46.143,-22.986C47.038,-24.117 48.332,-24.988 50.024,-25.598C51.717,-26.208 53.678,-26.514 55.908,-26.514C58.122,-26.514 59.92,-26.253 61.304,-25.732C62.687,-25.212 63.704,-24.556 64.355,-23.767C65.007,-22.978 65.462,-21.981 65.723,-20.776C65.869,-20.028 65.942,-18.677 65.942,-16.724L65.942,-10.864C65.942,-6.779 66.036,-4.195 66.223,-3.113C66.41,-2.03 66.781,-0.993 67.334,0L62.744,0C62.288,-0.911 61.995,-1.978 61.865,-3.198ZM61.499,-13.013C59.904,-12.362 57.511,-11.808 54.321,-11.353C52.515,-11.092 51.237,-10.799 50.488,-10.474C49.74,-10.148 49.162,-9.672 48.755,-9.045C48.348,-8.419 48.145,-7.723 48.145,-6.958C48.145,-5.786 48.588,-4.81 49.475,-4.028C50.362,-3.247 51.66,-2.856 53.369,-2.856C55.062,-2.856 56.567,-3.227 57.886,-3.967C59.204,-4.708 60.173,-5.721 60.791,-7.007C61.263,-8 61.499,-9.465 61.499,-11.401L61.499,-13.013Z" style="fill-rule:nonzero;"/>
                <path d="M82.349,-3.931L82.983,-0.049C81.746,0.212 80.64,0.342 79.663,0.342C78.068,0.342 76.831,0.09 75.952,-0.415C75.073,-0.92 74.455,-1.583 74.097,-2.405C73.739,-3.227 73.56,-4.956 73.56,-7.593L73.56,-22.51L70.337,-22.51L70.337,-25.928L73.56,-25.928L73.56,-32.349L77.93,-34.985L77.93,-25.928L82.349,-25.928L82.349,-22.51L77.93,-22.51L77.93,-7.349C77.93,-6.095 78.007,-5.29 78.162,-4.932C78.316,-4.574 78.569,-4.289 78.918,-4.077C79.268,-3.866 79.769,-3.76 80.42,-3.76C80.908,-3.76 81.551,-3.817 82.349,-3.931Z" style="fill-rule:nonzero;"/>
                <path d="M104.395,-8.35L108.936,-7.788C108.219,-5.135 106.893,-3.076 104.956,-1.611C103.019,-0.146 100.545,0.586 97.534,0.586C93.742,0.586 90.735,-0.582 88.513,-2.917C86.292,-5.253 85.181,-8.529 85.181,-12.744C85.181,-17.106 86.304,-20.492 88.55,-22.9C90.796,-25.309 93.709,-26.514 97.29,-26.514C100.757,-26.514 103.589,-25.334 105.786,-22.974C107.983,-20.614 109.082,-17.293 109.082,-13.013C109.082,-12.752 109.074,-12.362 109.058,-11.841L89.722,-11.841C89.884,-8.993 90.69,-6.812 92.139,-5.298C93.587,-3.784 95.394,-3.027 97.559,-3.027C99.17,-3.027 100.545,-3.451 101.685,-4.297C102.824,-5.143 103.727,-6.494 104.395,-8.35ZM89.966,-15.454L104.443,-15.454C104.248,-17.635 103.695,-19.271 102.783,-20.361C101.383,-22.054 99.569,-22.9 97.339,-22.9C95.321,-22.9 93.624,-22.225 92.249,-20.874C90.873,-19.523 90.112,-17.716 89.966,-15.454Z" style="fill-rule:nonzero;"/>
                <rect x="112.744" y="-15.161" width="13.501" height="4.419" style="fill-rule:nonzero;"/>
                <path d="M131.104,0L131.104,-25.928L135.059,-25.928L135.059,-22.241C136.963,-25.09 139.714,-26.514 143.311,-26.514C144.873,-26.514 146.309,-26.233 147.62,-25.671C148.93,-25.11 149.91,-24.373 150.562,-23.462C151.213,-22.55 151.668,-21.468 151.929,-20.215C152.091,-19.401 152.173,-17.977 152.173,-15.942L152.173,0L147.778,0L147.778,-15.771C147.778,-17.562 147.607,-18.901 147.266,-19.788C146.924,-20.675 146.318,-21.383 145.447,-21.912C144.576,-22.441 143.555,-22.705 142.383,-22.705C140.511,-22.705 138.896,-22.111 137.537,-20.923C136.178,-19.735 135.498,-17.48 135.498,-14.16L135.498,0L131.104,0Z" style="fill-rule:nonzero;"/>
                <path d="M175.83,-3.198C174.202,-1.815 172.636,-0.838 171.13,-0.269C169.625,0.301 168.009,0.586 166.284,0.586C163.436,0.586 161.247,-0.11 159.717,-1.501C158.187,-2.893 157.422,-4.671 157.422,-6.836C157.422,-8.105 157.711,-9.265 158.289,-10.315C158.866,-11.365 159.623,-12.207 160.559,-12.842C161.495,-13.477 162.549,-13.957 163.721,-14.282C164.583,-14.51 165.885,-14.73 167.627,-14.941C171.175,-15.365 173.787,-15.869 175.464,-16.455C175.48,-17.057 175.488,-17.44 175.488,-17.603C175.488,-19.393 175.073,-20.654 174.243,-21.387C173.12,-22.38 171.452,-22.876 169.238,-22.876C167.171,-22.876 165.645,-22.514 164.661,-21.79C163.676,-21.065 162.948,-19.784 162.476,-17.944L158.179,-18.53C158.569,-20.369 159.212,-21.855 160.107,-22.986C161.003,-24.117 162.297,-24.988 163.989,-25.598C165.682,-26.208 167.643,-26.514 169.873,-26.514C172.087,-26.514 173.885,-26.253 175.269,-25.732C176.652,-25.212 177.669,-24.556 178.32,-23.767C178.971,-22.978 179.427,-21.981 179.688,-20.776C179.834,-20.028 179.907,-18.677 179.907,-16.724L179.907,-10.864C179.907,-6.779 180.001,-4.195 180.188,-3.113C180.375,-2.03 180.745,-0.993 181.299,0L176.709,0C176.253,-0.911 175.96,-1.978 175.83,-3.198ZM175.464,-13.013C173.869,-12.362 171.476,-11.808 168.286,-11.353C166.479,-11.092 165.202,-10.799 164.453,-10.474C163.704,-10.148 163.127,-9.672 162.72,-9.045C162.313,-8.419 162.109,-7.723 162.109,-6.958C162.109,-5.786 162.553,-4.81 163.44,-4.028C164.327,-3.247 165.625,-2.856 167.334,-2.856C169.027,-2.856 170.532,-3.227 171.851,-3.967C173.169,-4.708 174.137,-5.721 174.756,-7.007C175.228,-8 175.464,-9.465 175.464,-11.401L175.464,-13.013Z" style="fill-rule:nonzero;"/>
                <path d="M186.719,0L186.719,-25.928L190.649,-25.928L190.649,-22.29C191.463,-23.56 192.546,-24.581 193.896,-25.354C195.247,-26.127 196.785,-26.514 198.511,-26.514C200.431,-26.514 202.006,-26.115 203.235,-25.317C204.464,-24.52 205.33,-23.405 205.835,-21.973C207.886,-25 210.555,-26.514 213.843,-26.514C216.414,-26.514 218.392,-25.802 219.775,-24.377C221.159,-22.953 221.851,-20.76 221.851,-17.798L221.851,0L217.48,0L217.48,-16.333C217.48,-18.091 217.338,-19.356 217.053,-20.129C216.768,-20.903 216.252,-21.525 215.503,-21.997C214.754,-22.469 213.875,-22.705 212.866,-22.705C211.043,-22.705 209.53,-22.099 208.325,-20.886C207.121,-19.674 206.519,-17.733 206.519,-15.063L206.519,0L202.124,0L202.124,-16.846C202.124,-18.799 201.766,-20.264 201.05,-21.24C200.334,-22.217 199.162,-22.705 197.534,-22.705C196.297,-22.705 195.154,-22.38 194.104,-21.729C193.054,-21.077 192.293,-20.125 191.821,-18.872C191.349,-17.619 191.113,-15.812 191.113,-13.452L191.113,0L186.719,0Z" style="fill-rule:nonzero;"/>
                <path d="M246.118,-8.35L250.659,-7.788C249.943,-5.135 248.617,-3.076 246.68,-1.611C244.743,-0.146 242.269,0.586 239.258,0.586C235.465,0.586 232.458,-0.582 230.237,-2.917C228.015,-5.253 226.904,-8.529 226.904,-12.744C226.904,-17.106 228.027,-20.492 230.273,-22.9C232.52,-25.309 235.433,-26.514 239.014,-26.514C242.48,-26.514 245.313,-25.334 247.51,-22.974C249.707,-20.614 250.806,-17.293 250.806,-13.013C250.806,-12.752 250.798,-12.362 250.781,-11.841L231.445,-11.841C231.608,-8.993 232.414,-6.812 233.862,-5.298C235.311,-3.784 237.118,-3.027 239.282,-3.027C240.894,-3.027 242.269,-3.451 243.408,-4.297C244.548,-5.143 245.451,-6.494 246.118,-8.35ZM231.689,-15.454L246.167,-15.454C245.972,-17.635 245.418,-19.271 244.507,-20.361C243.107,-22.054 241.292,-22.9 239.063,-22.9C237.044,-22.9 235.347,-22.225 233.972,-20.874C232.597,-19.523 231.836,-17.716 231.689,-15.454Z" style="fill-rule:nonzero;"/>
            </g>
        </g>
    </g>
</svg>
